<svg width="20" height="20" viewBox="0 0 20 20" fill="none" xmlns="http://www.w3.org/2000/svg">
<path d="M17.3601 3.79583C17.4438 3.67033 17.4919 3.52446 17.4992 3.37376C17.5065 3.22307 17.4728 3.07322 17.4016 2.9402C17.3304 2.80717 17.2245 2.69596 17.0951 2.61844C16.9656 2.54091 16.8176 2.49998 16.6667 2.5H3.33339C3.18265 2.50008 3.03476 2.54104 2.90546 2.61852C2.77617 2.69601 2.6703 2.80711 2.59916 2.94C2.52801 3.07289 2.49424 3.22259 2.50144 3.37315C2.50864 3.52372 2.55655 3.66951 2.64006 3.795L9.16672 13.5858V16.6667H6.66672V18.3333H13.3334V16.6667H10.8334V13.5858L17.3601 3.79583ZM15.1101 4.16667L13.4434 6.66667H6.55672L4.89006 4.16667H15.1101Z" fill="#FBFF4B"/>
</svg>
