<svg width="20" height="20" viewBox="0 0 20 20" fill="none" xmlns="http://www.w3.org/2000/svg">
<path d="M14.5171 10.0163C14.5205 8.88694 14.0973 7.7979 13.3322 6.96714C12.5671 6.13638 11.5165 5.62517 10.3906 5.53582C9.26476 5.44646 8.14668 5.78554 7.2601 6.48521C6.37352 7.18488 5.78385 8.19354 5.60908 9.30934C6.06908 9.27234 6.52908 9.28434 6.98608 9.34134C8.33708 9.51134 9.59008 10.0663 10.7551 10.7453C11.4651 11.1603 12.3631 11.2783 13.3071 11.1483C13.7061 11.0923 14.0871 10.9963 14.4351 10.8753C14.4899 10.592 14.5173 10.305 14.5171 10.0163ZM5.07708 4.38234L5.00708 4.32434C4.90441 4.25303 4.77877 4.22276 4.65489 4.2395C4.53102 4.25623 4.41791 4.31876 4.33785 4.41475C4.25779 4.51075 4.21659 4.63325 4.22237 4.75811C4.22815 4.88298 4.28049 5.00115 4.36908 5.08934L5.22708 5.94734L5.29708 6.00534C5.39974 6.07664 5.52539 6.10691 5.64926 6.09018C5.77313 6.07344 5.88624 6.01091 5.9663 5.91492C6.04636 5.81892 6.08756 5.69642 6.08178 5.57156C6.076 5.4467 6.02366 5.32852 5.93508 5.24034L5.07708 4.38234ZM15.7391 5.01934C15.8092 4.91662 15.8386 4.79144 15.8214 4.66824C15.8042 4.54504 15.7418 4.43266 15.6462 4.35307C15.5506 4.27347 15.4287 4.23236 15.3045 4.23777C15.1802 4.24319 15.0624 4.29473 14.9741 4.38234L14.1151 5.24034L14.0571 5.31034C13.9869 5.41305 13.9576 5.53823 13.9747 5.66143C13.9919 5.78464 14.0544 5.89701 14.15 5.97661C14.2456 6.0562 14.3674 6.09731 14.4917 6.0919C14.616 6.08649 14.7338 6.03494 14.8221 5.94734L15.6811 5.08934L15.7391 5.01934ZM10.5201 2.43534C10.4978 2.31239 10.4303 2.20223 10.3309 2.12656C10.2315 2.05088 10.1073 2.01517 9.9829 2.02646C9.85846 2.03775 9.74276 2.09522 9.65859 2.18755C9.57441 2.27989 9.52785 2.40039 9.52808 2.52534V3.73834L9.53608 3.82834C9.55834 3.95128 9.62582 4.06144 9.72524 4.13712C9.82467 4.21279 9.94882 4.2485 10.0733 4.23721C10.1977 4.22592 10.3134 4.16845 10.3976 4.07612C10.4817 3.98379 10.5283 3.86328 10.5281 3.73834V2.52434L10.5201 2.43534ZM3.74008 11.9393C4.79608 11.3633 5.77608 11.2053 6.73708 11.3253C7.71108 11.4483 8.69708 11.8603 9.74708 12.4733C10.9501 13.1743 12.3311 13.3023 13.5811 13.1293C14.8291 12.9563 15.9911 12.4783 16.7911 11.9073C16.899 11.8302 16.9719 11.7133 16.9936 11.5824C17.0154 11.4515 16.9843 11.3173 16.9071 11.2093C16.8299 11.1014 16.713 11.0285 16.5821 11.0068C16.4512 10.985 16.317 11.0162 16.2091 11.0933C15.5511 11.5633 14.5431 11.9863 13.4441 12.1383C12.3471 12.2903 11.2081 12.1683 10.2511 11.6093C9.14308 10.9633 8.02408 10.4793 6.86108 10.3333C5.68608 10.1863 4.49608 10.3873 3.26108 11.0613C3.20343 11.0928 3.15254 11.1353 3.11131 11.1864C3.07008 11.2375 3.03933 11.2963 3.0208 11.3593C3.00228 11.4223 2.99635 11.4883 3.00334 11.5536C3.01034 11.6189 3.03013 11.6822 3.06158 11.7398C3.1251 11.8563 3.23227 11.9427 3.35951 11.9801C3.42251 11.9986 3.48855 12.0046 3.55385 11.9976C3.61915 11.9906 3.68243 11.9708 3.74008 11.9393ZM6.73708 13.3253C5.77608 13.2053 4.79608 13.3633 3.74008 13.9393C3.68243 13.9709 3.61913 13.9907 3.55381 13.9978C3.48849 14.0048 3.42241 13.9989 3.35936 13.9805C3.23203 13.9431 3.12473 13.8568 3.06108 13.7403C3.02956 13.6827 3.00971 13.6194 3.00265 13.5541C2.99559 13.4887 3.00147 13.4227 3.01995 13.3596C3.05727 13.2323 3.14365 13.125 3.26008 13.0613C4.49608 12.3873 5.68608 12.1863 6.86208 12.3333C8.02408 12.4793 9.14308 12.9633 10.2521 13.6093C11.2081 14.1673 12.3471 14.2903 13.4441 14.1393C14.5421 13.9863 15.5511 13.5643 16.2091 13.0933C16.317 13.0162 16.4512 12.985 16.5821 13.0068C16.713 13.0285 16.8299 13.1014 16.9071 13.2093C16.9843 13.3173 17.0154 13.4515 16.9936 13.5824C16.9719 13.7133 16.899 13.8302 16.7911 13.9073C15.9911 14.4773 14.8281 14.9563 13.5811 15.1293C12.3311 15.3023 10.9501 15.1743 9.74708 14.4733C8.69708 13.8603 7.71108 13.4483 6.73708 13.3253ZM3.74008 15.9403C4.79608 15.3643 5.77608 15.2063 6.73708 15.3263C7.71108 15.4493 8.69708 15.8613 9.74708 16.4743C10.9501 17.1753 12.3311 17.3033 13.5811 17.1303C14.8291 16.9573 15.9911 16.4793 16.7911 15.9083C16.899 15.8312 16.9719 15.7143 16.9936 15.5834C17.0154 15.4525 16.9843 15.3183 16.9071 15.2103C16.8299 15.1024 16.713 15.0295 16.5821 15.0078C16.4512 14.986 16.317 15.0172 16.2091 15.0943C15.5511 15.5643 14.5431 15.9873 13.4441 16.1393C12.3471 16.2913 11.2081 16.1693 10.2511 15.6103C9.14308 14.9643 8.02408 14.4803 6.86108 14.3343C5.68608 14.1873 4.49608 14.3883 3.26108 15.0623C3.14465 15.1259 3.05822 15.233 3.0208 15.3603C2.98339 15.4875 2.99806 15.6244 3.06158 15.7408C3.1251 15.8573 3.23227 15.9437 3.35951 15.9811C3.48675 16.0185 3.62365 16.0039 3.74008 15.9403Z" fill="#FBFF4B"/>
</svg>
