<svg width="36" height="36" viewBox="0 0 36 36" fill="none" xmlns="http://www.w3.org/2000/svg">
<path d="M13.7565 18.0779L11.6355 20.1989L18 26.5649L24.3645 20.2004L22.242 18.0794L19.5 20.8199L19.5 9.51444L16.5 9.51444L16.5 20.8199L13.7565 18.0779Z" fill="white"/>
<path fill-rule="evenodd" clip-rule="evenodd" d="M6.333 29.667C12.777 36.111 23.223 36.111 29.667 29.667C36.111 23.223 36.111 12.777 29.667 6.333C23.223 -0.110999 12.777 -0.110998 6.333 6.333C-0.111002 12.777 -0.111001 23.223 6.333 29.667ZM8.454 27.546C10.9858 30.0778 14.4196 31.5001 18 31.5001C21.5804 31.5001 25.0142 30.0778 27.546 27.546C30.0778 25.0142 31.5001 21.5804 31.5001 18C31.5001 14.4196 30.0778 10.9858 27.546 8.454C25.0142 5.92224 21.5804 4.49992 18 4.49992C14.4196 4.49992 10.9858 5.92224 8.454 8.454C5.92224 10.9858 4.49992 14.4196 4.49992 18C4.49992 21.5804 5.92224 25.0142 8.454 27.546Z" fill="white"/>
</svg>
