<svg width="32" height="32" viewBox="0 0 32 32" fill="none" xmlns="http://www.w3.org/2000/svg">
<path d="M26.0667 5.33337H5.26666C3.83276 5.33337 2.66666 6.45462 2.66666 7.83337V22.8334C2.66666 24.2121 3.83276 25.3334 5.26666 25.3334H26.0667C27.5006 25.3334 28.6667 24.2121 28.6667 22.8334V7.83337C28.6667 6.45462 27.5006 5.33337 26.0667 5.33337ZM11.3962 10.3334C12.8925 10.3334 13.9962 11.3946 13.9962 12.8334C13.9962 14.2721 12.8925 15.3334 11.3962 15.3334C9.89986 15.3334 8.79616 14.2721 8.79616 12.8334C8.79616 11.3946 9.89856 10.3334 11.3962 10.3334ZM16.2257 20.3334H6.56666V19.7521C6.56666 18.0359 8.74546 16.2709 11.3962 16.2709C14.0469 16.2709 16.2257 18.0359 16.2257 19.7521V20.3334ZM24.7667 19.0834H19.5667V16.5834H24.7667V19.0834ZM24.7667 14.0834H18.2667V11.5834H24.7667V14.0834Z" fill="white"/>
</svg>
