<svg width="34" height="34" viewBox="0 0 34 34" fill="none" xmlns="http://www.w3.org/2000/svg">
<path d="M25 7.85714H27.2857M10.1429 1H23.8571C26.282 1 28.6075 1.96326 30.3221 3.67788C32.0367 5.3925 33 7.71802 33 10.1429V23.8571C33 26.282 32.0367 28.6075 30.3221 30.3221C28.6075 32.0367 26.282 33 23.8571 33H10.1429C7.71802 33 5.3925 32.0367 3.67788 30.3221C1.96326 28.6075 1 26.282 1 23.8571V10.1429C1 7.71802 1.96326 5.3925 3.67788 3.67788C5.3925 1.96326 7.71802 1 10.1429 1ZM17 23.8571C15.1814 23.8571 13.4372 23.1347 12.1513 21.8487C10.8653 20.5628 10.1429 18.8186 10.1429 17C10.1429 15.1814 10.8653 13.4372 12.1513 12.1513C13.4372 10.8653 15.1814 10.1429 17 10.1429C18.8186 10.1429 20.5628 10.8653 21.8487 12.1513C23.1347 13.4372 23.8571 15.1814 23.8571 17C23.8571 18.8186 23.1347 20.5628 21.8487 21.8487C20.5628 23.1347 18.8186 23.8571 17 23.8571Z" stroke="white" stroke-width="2"/>
</svg>
