<svg width="72" height="72" viewBox="0 0 72 72" fill="none" xmlns="http://www.w3.org/2000/svg">
<path d="M32.742 61.1717C32.9245 61.3473 33.1398 61.4852 33.3757 61.5776C33.6115 61.67 33.8632 61.715 34.1164 61.7102C34.6278 61.7003 35.1144 61.4876 35.469 61.119C35.8236 60.7504 36.0173 60.256 36.0074 59.7446C35.9975 59.2332 35.7849 58.7466 35.4163 58.392L14.1377 37.9234L62.3597 37.9234C62.8712 37.9234 63.3617 37.7203 63.7234 37.3586C64.0851 36.9969 64.2883 36.5064 64.2883 35.9949C64.2883 35.4834 64.0851 34.9928 63.7234 34.6312C63.3617 34.2695 62.8712 34.0663 62.3597 34.0663L14.1429 34.0663L35.4189 13.6029C35.6014 13.4273 35.7475 13.2174 35.8489 12.9854C35.9504 12.7533 36.0051 12.5035 36.01 12.2503C36.0149 11.9971 35.9699 11.7454 35.8775 11.5095C35.7851 11.2737 35.6472 11.0584 35.4716 10.8759C35.296 10.6933 35.0861 10.5472 34.8541 10.4458C34.622 10.3443 34.3722 10.2896 34.119 10.2847C33.8658 10.2798 33.6141 10.3249 33.3782 10.4172C33.1424 10.5096 32.9271 10.6476 32.7446 10.8232L8.50114 34.1434C8.25188 34.3834 8.05358 34.6711 7.91814 34.9894C7.7827 35.3078 7.71288 35.6502 7.71288 35.9962C7.71288 36.3421 7.7827 36.6845 7.91814 37.0029C8.05358 37.3212 8.25188 37.609 8.50114 37.8489L32.742 61.1717Z" fill="#FBFF4B"/>
</svg>
