<svg width="32" height="32" viewBox="0 0 32 32" fill="none" xmlns="http://www.w3.org/2000/svg">
<path fill-rule="evenodd" clip-rule="evenodd" d="M20.9118 0H11.0882C2.12279 0 0 2.12279 0 11.0882V20.9118C0 29.8772 2.12279 32 11.0882 32H20.9118C29.8772 32 32 29.8772 32 20.9118V11.0882C32 2.12279 29.8772 0 20.9118 0ZM25.4961 10.1626C26.1962 10.1626 26.3543 10.5239 26.1962 11.0207C25.9495 12.1593 23.9008 15.1797 23.2662 16.1152C23.1457 16.293 23.0762 16.3954 23.0798 16.3954C22.8314 16.8019 22.741 16.9826 23.0798 17.4343C23.2022 17.6012 23.4619 17.8561 23.7587 18.1473C24.0639 18.4468 24.4083 18.7848 24.6832 19.1054C25.6768 20.2345 26.4446 21.183 26.6479 21.8379C26.8285 22.4928 26.5124 22.8316 25.8349 22.8316H23.5088C22.8924 22.8316 22.5747 22.4776 21.8975 21.7231C21.6071 21.3996 21.2507 21.0025 20.7763 20.5281C19.3987 19.1957 18.789 19.0151 18.4503 19.0151C17.976 19.0151 17.8405 19.128 17.8405 19.8055V21.9057C17.8405 22.4702 17.6599 22.809 16.1694 22.809C13.7079 22.809 10.9753 21.3185 9.05577 18.5408C6.16516 14.4759 5.37476 11.4046 5.37476 10.7949C5.37476 10.4561 5.48767 10.14 6.16516 10.14H8.51378C9.10094 10.14 9.32677 10.3884 9.5526 11.0433C10.7043 14.363 12.6239 17.2762 13.4143 17.2762C13.7079 17.2762 13.8434 17.1407 13.8434 16.3954V12.9628C13.7876 11.9872 13.448 11.5621 13.1961 11.2468C13.0399 11.0513 12.9175 10.8981 12.9175 10.682C12.9175 10.411 13.1433 10.14 13.5046 10.14H17.163C17.6599 10.14 17.8405 10.411 17.8405 10.9981V15.6276C17.8405 16.1244 18.0438 16.3051 18.2019 16.3051C18.4954 16.3051 18.7438 16.1244 19.2858 15.5825C20.957 13.7081 22.1539 10.8175 22.1539 10.8175C22.3119 10.4787 22.5829 10.1626 23.1701 10.1626H25.4961Z" fill="white"/>
</svg>
