<svg width="36" height="36" viewBox="0 0 36 36" fill="none" xmlns="http://www.w3.org/2000/svg">
<path fill-rule="evenodd" clip-rule="evenodd" d="M23.5258 0H12.4742C2.38814 0 0 2.38814 0 12.4742V23.5258C0 33.6119 2.38814 36 12.4742 36H23.5258C33.6119 36 36 33.6119 36 23.5258V12.4742C36 2.38814 33.6119 0 23.5258 0ZM28.6832 11.4329C29.4707 11.4329 29.6486 11.8394 29.4707 12.3983C29.1932 13.6792 26.8884 17.0772 26.1745 18.1296C26.0389 18.3296 25.9607 18.4449 25.9647 18.4449C25.6853 18.9022 25.5837 19.1054 25.9647 19.6135C26.1025 19.8014 26.3946 20.0881 26.7285 20.4157C27.0719 20.7526 27.4594 21.1329 27.7685 21.4936C28.8864 22.7639 29.7502 23.8309 29.9788 24.5677C30.1821 25.3044 29.8264 25.6855 29.0642 25.6855H26.4474C25.754 25.6855 25.3965 25.2873 24.6347 24.4385C24.308 24.0746 23.907 23.6278 23.3733 23.0941C21.8236 21.5952 21.1376 21.3919 20.7566 21.3919C20.223 21.3919 20.0706 21.519 20.0706 22.2811V24.6439C20.0706 25.279 19.8673 25.6601 18.1906 25.6601C15.4213 25.6601 12.3472 23.9833 10.1877 20.8584C6.9358 16.2854 6.0466 12.8302 6.0466 12.1442C6.0466 11.7632 6.17363 11.4075 6.9358 11.4075H9.578C10.2386 11.4075 10.4926 11.6869 10.7467 12.4237C12.0424 16.1584 14.2019 19.4357 15.0911 19.4357C15.4213 19.4357 15.5738 19.2833 15.5738 18.4449V14.5832C15.511 13.4856 15.1289 13.0073 14.8456 12.6527C14.6699 12.4327 14.5321 12.2603 14.5321 12.0172C14.5321 11.7123 14.7862 11.4075 15.1927 11.4075H19.3084C19.8673 11.4075 20.0706 11.7123 20.0706 12.3729V17.5811C20.0706 18.14 20.2992 18.3433 20.4771 18.3433C20.8074 18.3433 21.0868 18.14 21.6966 17.5303C23.5766 15.4216 24.9231 12.1696 24.9231 12.1696C25.1009 11.7886 25.4058 11.4329 26.0664 11.4329H28.6832Z" fill="white"/>
</svg>
