<svg width="20" height="20" viewBox="0 0 20 20" fill="none" xmlns="http://www.w3.org/2000/svg">
<path d="M16.8756 17.5C16.7786 17.5001 16.6828 17.4776 16.5961 17.4342C16.5093 17.3908 16.4338 17.3277 16.3756 17.25L15.8663 16.5713C15.3836 15.9279 15.0446 15.1884 14.8721 14.4029C14.6996 13.6173 14.6976 12.8039 14.8662 12.0175L15.7869 7.72C15.9181 7.10833 15.9165 6.47562 15.7823 5.8646C15.6481 5.25357 15.3843 4.67847 15.0087 4.17813L14.5 3.5C14.4508 3.43434 14.4149 3.35962 14.3946 3.28012C14.3742 3.20061 14.3697 3.11787 14.3813 3.03661C14.3929 2.95536 14.4204 2.87719 14.4622 2.80657C14.504 2.73594 14.5593 2.67425 14.625 2.625C14.6907 2.57576 14.7654 2.53993 14.8449 2.51956C14.9244 2.49919 15.0071 2.49468 15.0884 2.50628C15.1696 2.51789 15.2478 2.54539 15.3184 2.58721C15.3891 2.62902 15.4508 2.68434 15.5 2.75L16.0094 3.42875C16.4919 4.07206 16.8309 4.81138 17.0034 5.59682C17.1759 6.38227 17.1779 7.19557 17.0094 7.98188L16.0881 12.2794C15.9569 12.8911 15.9585 13.5238 16.0927 14.1348C16.2269 14.7458 16.4907 15.3209 16.8663 15.8213L17.375 16.5C17.4446 16.5928 17.487 16.7032 17.4975 16.8187C17.5079 16.9343 17.486 17.0504 17.4342 17.1542C17.3823 17.258 17.3026 17.3453 17.204 17.4064C17.1053 17.4675 16.9916 17.4999 16.8756 17.5ZM13.7506 17.5C13.6536 17.5001 13.5578 17.4776 13.4711 17.4342C13.3843 17.3908 13.3088 17.3277 13.2506 17.25L12.7413 16.5713C12.2586 15.9279 11.9196 15.1884 11.7471 14.4029C11.5746 13.6173 11.5726 12.8039 11.7412 12.0175L12.6619 7.72C12.7931 7.10833 12.7915 6.47562 12.6573 5.8646C12.5231 5.25357 12.2593 4.67847 11.8837 4.17813L11.375 3.5C11.3258 3.43434 11.2899 3.35962 11.2696 3.28012C11.2492 3.20061 11.2447 3.11787 11.2563 3.03661C11.2679 2.95536 11.2954 2.87719 11.3372 2.80657C11.379 2.73594 11.4343 2.67425 11.5 2.625C11.5657 2.57576 11.6404 2.53993 11.7199 2.51956C11.7994 2.49919 11.8821 2.49468 11.9634 2.50628C12.0446 2.51789 12.1228 2.54539 12.1934 2.58721C12.2641 2.62902 12.3258 2.68434 12.375 2.75L12.8844 3.42875C13.3669 4.07206 13.7059 4.81138 13.8784 5.59682C14.0509 6.38227 14.0529 7.19557 13.8844 7.98188L12.9631 12.2794C12.8319 12.8911 12.8335 13.5238 12.9677 14.1348C13.1019 14.7458 13.3657 15.3209 13.7413 15.8213L14.25 16.5C14.3196 16.5928 14.362 16.7032 14.3725 16.8187C14.3829 16.9343 14.361 17.0504 14.3092 17.1542C14.2573 17.258 14.1776 17.3453 14.079 17.4064C13.9803 17.4675 13.8666 17.4999 13.7506 17.5ZM10.6256 17.5C10.5286 17.5001 10.4328 17.4776 10.3461 17.4342C10.2593 17.3908 10.1838 17.3277 10.1256 17.25L9.61625 16.5713C9.13363 15.9279 8.79463 15.1884 8.62213 14.4029C8.44962 13.6173 8.44761 12.8039 8.61625 12.0175L9.53687 7.72C9.6681 7.10833 9.66654 6.47562 9.5323 5.8646C9.39807 5.25357 9.13428 4.67847 8.75875 4.17813L8.25 3.5C8.20075 3.43434 8.16492 3.35962 8.14455 3.28012C8.12418 3.20061 8.11967 3.11787 8.13128 3.03661C8.14289 2.95536 8.17039 2.87719 8.2122 2.80657C8.25402 2.73594 8.30934 2.67425 8.375 2.625C8.44066 2.57576 8.51538 2.53993 8.59489 2.51956C8.6744 2.49919 8.75714 2.49468 8.83839 2.50628C8.91964 2.51789 8.99781 2.54539 9.06843 2.58721C9.13906 2.62902 9.20075 2.68434 9.25 2.75L9.75875 3.42875C10.2414 4.07201 10.5804 4.8113 10.7531 5.59675C10.9257 6.3822 10.9278 7.19553 10.7594 7.98188L9.83813 12.2794C9.7069 12.8911 9.70846 13.5238 9.8427 14.1348C9.97693 14.7458 10.2407 15.3209 10.6163 15.8213L11.125 16.5C11.1946 16.5928 11.237 16.7032 11.2475 16.8187C11.2579 16.9343 11.236 17.0504 11.1842 17.1542C11.1323 17.258 11.0526 17.3453 10.954 17.4064C10.8553 17.4675 10.7416 17.4999 10.6256 17.5ZM7.50063 17.5C7.40358 17.5001 7.30785 17.4776 7.22105 17.4342C7.13425 17.3908 7.05877 17.3277 7.00063 17.25L6.49125 16.5713C6.00863 15.9279 5.66963 15.1884 5.49713 14.4029C5.32462 13.6173 5.32261 12.8039 5.49125 12.0175L6.41187 7.72C6.5431 7.10833 6.54154 6.47562 6.4073 5.8646C6.27307 5.25357 6.00928 4.67847 5.63375 4.17813L5.125 3.5C5.07575 3.43434 5.03992 3.35962 5.01955 3.28012C4.99918 3.20061 4.99467 3.11787 5.00628 3.03661C5.01789 2.95536 5.04539 2.87719 5.0872 2.80657C5.12902 2.73594 5.18434 2.67425 5.25 2.625C5.31566 2.57576 5.39038 2.53993 5.46989 2.51956C5.5494 2.49919 5.63214 2.49468 5.71339 2.50628C5.79464 2.51789 5.87281 2.54539 5.94343 2.58721C6.01406 2.62902 6.07575 2.68434 6.125 2.75L6.63437 3.42875C7.1169 4.07206 7.45585 4.81138 7.62836 5.59682C7.80087 6.38227 7.80292 7.19557 7.63438 7.98188L6.71313 12.2794C6.5819 12.8911 6.58346 13.5238 6.7177 14.1348C6.85193 14.7458 7.11572 15.3209 7.49125 15.8213L8 16.5C8.06961 16.5928 8.11201 16.7032 8.12246 16.8187C8.13291 16.9343 8.11099 17.0504 8.05916 17.1542C8.00732 17.258 7.92762 17.3453 7.82898 17.4064C7.73034 17.4675 7.61664 17.4999 7.50063 17.5ZM4.37562 17.5C4.27847 17.5002 4.18262 17.4777 4.0957 17.4343C4.00879 17.3909 3.93321 17.3278 3.875 17.25L3.36563 16.5713C2.88301 15.9279 2.54401 15.1884 2.3715 14.4029C2.19899 13.6173 2.19699 12.8039 2.36563 12.0175L3.28687 7.72C3.4181 7.10833 3.41654 6.47562 3.2823 5.8646C3.14807 5.25357 2.88428 4.67847 2.50875 4.17813L2 3.5C1.95075 3.43434 1.91492 3.35962 1.89455 3.28012C1.87418 3.20061 1.86967 3.11787 1.88128 3.03661C1.90472 2.87252 1.99239 2.72446 2.125 2.625C2.25761 2.52555 2.42429 2.48284 2.58839 2.50628C2.75248 2.52973 2.90054 2.61739 3 2.75L3.50937 3.42875C3.9919 4.07206 4.33085 4.81138 4.50336 5.59682C4.67587 6.38227 4.67792 7.19557 4.50938 7.98188L3.58813 12.2794C3.4569 12.8911 3.45846 13.5238 3.5927 14.1348C3.72693 14.7458 3.99072 15.3209 4.36625 15.8213L4.875 16.5C4.94461 16.5928 4.98701 16.7032 4.99746 16.8187C5.00791 16.9343 4.98599 17.0504 4.93416 17.1542C4.88232 17.258 4.80262 17.3453 4.70398 17.4064C4.60534 17.4675 4.49164 17.4999 4.37562 17.5Z" fill="#FBFF4B"/>
</svg>
