<svg width="52" height="52" viewBox="0 0 52 52" fill="none" xmlns="http://www.w3.org/2000/svg">
<path d="M44.1796 28.3529C44.3064 28.2211 44.406 28.0656 44.4727 27.8953C44.5395 27.725 44.572 27.5432 44.5684 27.3603C44.5613 26.9909 44.4077 26.6395 44.1415 26.3834C43.8753 26.1273 43.5182 25.9874 43.1489 25.9946C42.7795 26.0017 42.4281 26.1553 42.172 26.4215L27.3891 41.7893L27.3892 6.96235C27.3892 6.59294 27.2424 6.23866 26.9812 5.97745C26.72 5.71624 26.3657 5.56949 25.9963 5.56949C25.6269 5.56949 25.2726 5.71624 25.0114 5.97745C24.7502 6.23866 24.6034 6.59294 24.6034 6.96235L24.6034 41.7856L9.8243 26.4196C9.69748 26.2878 9.54593 26.1823 9.37832 26.109C9.21071 26.0358 9.03032 25.9962 8.84743 25.9927C8.66454 25.9892 8.48276 26.0217 8.31244 26.0884C8.14212 26.1551 7.98661 26.2547 7.8548 26.3816C7.72297 26.5084 7.61743 26.6599 7.54418 26.8275C7.47092 26.9951 7.43139 27.1755 7.42786 27.3584C7.42433 27.5413 7.45685 27.7231 7.52357 27.8934C7.59029 28.0637 7.6899 28.2192 7.81672 28.3511L24.6591 45.8602C24.8324 46.0402 25.0402 46.1834 25.2701 46.2813C25.5001 46.3791 25.7474 46.4295 25.9972 46.4295C26.2471 46.4295 26.4944 46.3791 26.7243 46.2813C26.9542 46.1834 27.162 46.0402 27.3353 45.8602L44.1796 28.3529Z" fill="#FBFF4B"/>
</svg>
